<?xml version="1.0" encoding="UTF-8"?>
<svg id="Layer_2" data-name="Layer 2" xmlns="http://www.w3.org/2000/svg" viewBox="0 0 987 806">
  <defs>
    <style>
      .cls-1 {
        stroke-width: 40px;
      }

      .cls-1, .cls-2, .cls-3, .cls-4, .cls-5 {
        fill: #fff;
        stroke: #c8c3bc;
        stroke-miterlimit: 10;
      }

      .cls-2 {
        stroke-width: 70px;
      }

      .cls-3 {
        stroke-width: 30px;
      }

      .cls-4 {
        stroke-width: 100px;
      }

      .cls-5 {
        stroke-width: 50px;
      }
    </style>
  </defs>
  <g id="Layer_1-2" data-name="Layer 1">
    <line class="cls-4" x1="601" y1="633" y2="633"/>
    <line class="cls-4" x1="987" y1="756" y2="756"/>
    <g>
      <line class="cls-4" x1="369" y1="501" x2="126" y2="501"/>
      <line class="cls-4" x1="175" y1="551" x2="175"/>
      <line class="cls-4" x1="319" y1="551" x2="319" y2="1"/>
      <line class="cls-4" x1="369" y1="50" x2="126" y2="50"/>
    </g>
    <g>
      <line class="cls-4" x1="865" y1="632" x2="622" y2="632"/>
      <line class="cls-4" x1="865" y1="471" x2="622" y2="471"/>
      <line class="cls-4" x1="672" y1="622" x2="672" y2="480"/>
      <line class="cls-4" x1="815" y1="618" x2="815" y2="475"/>
    </g>
    <line class="cls-4" x1="551" y1="422" x2="551" y2="683"/>
    <line class="cls-2" x1="390" y1="457" x2="596" y2="457"/>
    <line class="cls-4" x1="937" y1="378" x2="937" y2="733"/>
    <line class="cls-4" x1="937" x2="937" y2="175"/>
    <line class="cls-4" x1="743" x2="743" y2="304"/>
    <line class="cls-4" x1="987" y1="50" x2="693" y2="50"/>
    <line class="cls-4" x1="987" y1="346" x2="693" y2="346"/>
    <line class="cls-2" x1="987" y1="187" x2="839" y2="187"/>
    <line class="cls-4" x1="660" y1="349" x2="390" y2="349"/>
    <line class="cls-4" x1="671" y1="51" x2="390" y2="51"/>
    <line class="cls-4" x1="440" y1="343" x2="440" y2="1"/>
    <line class="cls-2" x1="636" y1="399" x2="636" y2="199"/>
    <line class="cls-5" x1="671" y1="218" x2="525" y2="218"/>
    <line class="cls-1" x1="545" y1="199" x2="545" y2="260"/>
    <line class="cls-3" x1="525" y1="268" x2="584" y2="268"/>
    <line class="cls-4" x1="50" x2="50" y2="668"/>
    <line class="cls-2" x1="424.56" y1="550.56" x2="424.56" y2="451.06"/>
  </g>
</svg>